name analog
datacolumns 19
datarows 28
range 0.0 0.0135
endheader
time	ground_force_vx	ground_force_vy	ground_force_vz	ground_force_px	ground_force_py	ground_force_pz	l_ground_force_vx	l_ground_force_vy	l_ground_force_vz	l_ground_force_px	l_ground_force_py	l_ground_force_pz	ground_torque_x	ground_torque_y	ground_torque_z	l_ground_torque_x	l_ground_torque_y	l_ground_torque_z
0.0	-0.0	-0.0	-0.0	2.540367364883423	21.33975601196289	-274.82928466796875	-2.9274559020996094	-19.96534538269043	-226.39724731445312	-0.0	-0.0	-0.0	-0.0	-0.0	-0.0	68140.3984375	20715.16796875	-4344.34814453125
0.0005	-0.0	-0.0	-0.0	2.9064455032348637	22.02940368652344	-274.2160949707031	-2.7872631549835205	-20.37943458557129	-226.65548706054688	-0.0	-0.0	-0.0	-0.0	-0.0	-0.0	67993.1171875	20631.453125	-4225.67724609375
0.001	-0.0	-0.0	-0.0	2.6348133087158203	21.443113327026367	-276.1702880859375	-2.591150045394897	-19.92378807067871	-225.7708282470703	-0.0	-0.0	-0.0	-0.0	-0.0	-0.0	67689.3125	20461.01953125	-4231.5947265625
0.0015	-0.0	-0.0	-0.0	2.709718704223633	21.85553359985352	-275.9808349609375	-2.835121393203736	-19.99386405944824	-225.90109252929688	-0.0	-0.0	-0.0	-0.0	-0.0	-0.0	67850.0703125	20251.15625	-4207.0380859375
0.002	-0.0	-0.0	-0.0	2.4608116149902344	21.729293823242188	-275.05377197265625	-2.8538312911987305	-19.93066024780273	-224.0828857421875	-0.0	-0.0	-0.0	-0.0	-0.0	-0.0	67779.34375	20291.248046875	-4236.740234375
0.0025	-0.0	-0.0	-0.0	2.4763216972351074	22.06433868408203	-276.3937072753906	-2.6246652603149414	-19.924203872680664	-225.07005310058597	-0.0	-0.0	-0.0	-0.0	-0.0	-0.0	67422.4375	20434.8125	-4178.2802734375
0.003	-0.0	-0.0	-0.0	2.405880689620972	21.81856155395508	-278.17120361328125	-2.590881109237671	-19.58922576904297	-224.36068725585935	-0.0	-0.0	-0.0	-0.0	-0.0	-0.0	67168.671875	20436.541015625	-4225.220703125
0.0035	-0.0	-0.0	-0.0	2.568779468536377	22.214191436767575	-279.0846862792969	-2.677269220352173	-19.96070098876953	-224.56724548339844	-0.0	-0.0	-0.0	-0.0	-0.0	-0.0	67400.78125	20049.994140625	-4201.76953125
0.004	-0.0	-0.0	-0.0	2.6236135959625244	22.33731460571289	-279.1485595703125	-3.421586036682129	-19.88853645324707	-223.66354370117188	-0.0	-0.0	-0.0	-0.0	-0.0	-0.0	66894.7734375	20239.7734375	-4254.869140625
0.0045000000000000005	-0.0	-0.0	-0.0	2.834786891937256	22.47903823852539	-278.80303955078125	-2.822274923324585	-19.520675659179688	-224.78256225585935	-0.0	-0.0	-0.0	-0.0	-0.0	-0.0	67019.2421875	20389.501953125	-4260.4697265625
0.005	-0.0	-0.0	-0.0	2.587104797363281	22.9775447845459	-279.3653564453125	-3.6539206504821777	-19.50118827819824	-222.9710693359375	-0.0	-0.0	-0.0	-0.0	-0.0	-0.0	67174.6640625	20365.80078125	-4314.8505859375
0.0055	-0.0	-0.0	-0.0	2.9269556999206543	23.19194221496582	-280.0717163085937	-3.140722274780273	-19.536039352416992	-221.8488006591797	-0.0	-0.0	-0.0	-0.0	-0.0	-0.0	66965.1171875	20393.97265625	-4456.8017578125
0.006	-0.0	-0.0	-0.0	2.6417644023895264	23.084774017333984	-282.2591552734375	-3.4591727256774902	-19.00748062133789	-222.8268280029297	-0.0	-0.0	-0.0	-0.0	-0.0	-0.0	66593.0546875	20260.71875	-4391.5966796875
0.006500000000000001	-0.0	-0.0	-0.0	3.336601495742798	22.96018409729004	-280.98944091796875	-3.867725133895874	-19.5366268157959	-221.0829315185547	-0.0	-0.0	-0.0	-0.0	-0.0	-0.0	66409.8046875	20365.4296875	-4469.15185546875
0.007	-0.0	-0.0	-0.0	3.3542940616607666	23.655183792114254	-281.7670593261719	-3.7968499660491934	-19.201078414916992	-221.01296997070312	-0.0	-0.0	-0.0	-0.0	-0.0	-0.0	65981.7578125	20253.0234375	-4492.818359375
0.0075	-0.0	-0.0	-0.0	2.693710803985596	23.76268577575684	-281.4814758300781	-4.098859786987305	-19.30733108520508	-220.8741455078125	-0.0	-0.0	-0.0	-0.0	-0.0	-0.0	65987.9140625	20166.255859375	-4534.6220703125
0.008	-0.0	-0.0	-0.0	2.9439468383789062	23.726367950439453	-283.32037353515625	-3.672275066375733	-19.254127502441406	-219.61636352539065	-0.0	-0.0	-0.0	-0.0	-0.0	-0.0	65705.890625	20365.0546875	-4451.234375
0.0085	-0.0	-0.0	-0.0	3.01448917388916	23.976078033447266	-285.1640625	-3.903274536132813	-19.129770278930664	-217.7281494140625	-0.0	-0.0	-0.0	-0.0	-0.0	-0.0	65394.33984375	20153.056640625	-4552.0869140625
0.009000000000000001	-0.0	-0.0	-0.0	2.783083915710449	24.11925506591797	-285.3750305175781	-4.205832004547119	-18.952896118164062	-217.17230224609372	-0.0	-0.0	-0.0	-0.0	-0.0	-0.0	65254.41015625	20299.220703125	-4558.05908203125
0.0095	-0.0	-0.0	-0.0	2.90897274017334	24.17535781860352	-286.5674133300781	-4.294754981994629	-18.635875701904297	-216.261474609375	-0.0	-0.0	-0.0	-0.0	-0.0	-0.0	64852.08984375	19746.498046875	-4469.00244140625
0.01	-0.0	-0.0	-0.0	3.0505833625793457	24.282447814941406	-287.98785400390625	-4.09799337387085	-18.40313720703125	-215.14547729492188	-0.0	-0.0	-0.0	-0.0	-0.0	-0.0	64547.08984375	19955.634765625	-4468.7626953125
0.0105	-0.0	-0.0	-0.0	3.0331573486328125	24.884714126586918	-288.7638244628906	-4.366659164428711	-18.282588958740234	-214.1079864501953	-0.0	-0.0	-0.0	-0.0	-0.0	-0.0	64396.78125	19859.759765625	-4534.8310546875
0.011	-0.0	-0.0	-0.0	3.139655351638794	25.0656852722168	-290.0976257324219	-4.278191089630127	-18.405078887939453	-212.49826049804688	-0.0	-0.0	-0.0	-0.0	-0.0	-0.0	64151.3828125	20005.083984375	-4671.68408203125
0.0115	-0.0	-0.0	-0.0	2.77957534790039	24.99405860900879	-289.88006591796875	-4.343529224395752	-18.374195098876957	-211.8677978515625	-0.0	-0.0	-0.0	-0.0	-0.0	-0.0	63855.109375	20059.734375	-4547.45751953125
0.012	-0.0	-0.0	-0.0	2.926807641983032	24.994272232055664	-291.5909118652344	-4.114719867706299	-17.942604064941406	-211.73416137695312	-0.0	-0.0	-0.0	-0.0	-0.0	-0.0	63752.31640625	20034.328125	-4594.03271484375
0.0125	-0.0	-0.0	-0.0	3.619654655456543	25.045642852783203	-289.3896179199219	-4.684720516204834	-17.96699333190918	-211.25228881835935	-0.0	-0.0	-0.0	-0.0	-0.0	-0.0	63712.44140625	19805.859375	-4611.48974609375
0.013000000000000001	-0.0	-0.0	-0.0	3.3007888793945312	25.72051239013672	-290.93634033203125	-4.701671600341797	-17.85778045654297	-210.9710693359375	-0.0	-0.0	-0.0	-0.0	-0.0	-0.0	63416.79296875	19874.087890625	-4576.1416015625
0.0135	-0.0	-0.0	-0.0	3.194648504257202	25.74632835388184	-292.7010803222656	-4.879093170166016	-17.652278900146484	-209.3586883544922	-0.0	-0.0	-0.0	-0.0	-0.0	-0.0	63234.625	19860.7421875	-4574.64697265625
